<svg width="320" height="50" viewBox="0 0 320 50" fill="none" xmlns="http://www.w3.org/2000/svg">
<path fill-rule="evenodd" clip-rule="evenodd" d="M57.6142 1.98926C57.4241 1.63245 56.6908 1.06033 55.9854 0.717813C54.981 0.230398 53.7447 0.0766537 50.2956 0.00930662C47.7434 -0.0403531 44.819 0.112711 43.3464 0.373255C41.9481 0.620194 39.6108 1.15114 38.1522 1.55318C36.6936 1.95488 34.8942 2.594 34.1539 2.97292C33.4131 3.35217 32.2195 4.19503 31.5016 4.84606C30.7833 5.49708 29.951 6.54674 29.6524 7.17871C29.3534 7.81034 29.109 8.72837 29.109 9.21816C29.109 9.70796 29.4927 10.7188 29.9619 11.4644C30.431 12.21 31.4605 13.291 32.25 13.8668C33.0395 14.4427 34.1502 15.1097 34.7183 15.3495C35.2864 15.5893 37.422 16.1825 39.4641 16.6678C41.5061 17.1532 44.2688 17.775 45.6037 18.0498C46.9383 18.3246 48.502 18.794 49.0783 19.093C49.6546 19.392 50.1261 19.7668 50.1261 19.9256C50.1261 20.0845 46.8847 21.2998 42.9227 22.6263C38.961 23.9525 30.5327 26.6661 24.1938 28.6562C17.8548 30.6464 11.7409 32.5467 10.6073 32.8791C9.47342 33.2117 7.29986 33.5944 5.77681 33.7297C4.03715 33.8842 2.47241 34.2469 1.56699 34.7054C0.774444 35.1068 0.0720735 35.7265 0.00631077 36.0823C-0.0757231 36.5276 0.639529 37.4452 2.29749 39.0225C3.77647 40.4289 5.72258 41.8415 7.33241 42.6772C8.7758 43.4262 11.1768 44.3803 12.6683 44.7976C14.8833 45.417 15.908 45.5211 18.2616 45.365C19.8463 45.2599 22.4395 44.8677 24.0243 44.4939C25.609 44.1197 28.3548 43.3306 30.126 42.7398C31.8972 42.1493 34.9481 40.9735 36.9058 40.1265C38.8634 39.2799 41.6854 37.965 43.1769 37.2044C44.6685 36.4439 46.8383 35.2259 47.9986 34.498C49.1593 33.7702 51.1268 32.0763 52.3708 30.7338C53.6593 29.343 54.9915 27.4876 55.4668 26.4219C56.1685 24.8481 56.2752 24.1845 56.1393 22.2413L55.9773 19.9314L57.161 19.4352C57.8119 19.162 58.5952 18.9389 58.902 18.9389C59.3244 18.9389 59.4685 19.2828 59.4966 20.3583C59.5217 21.3205 59.7383 21.9291 60.1688 22.2481C60.5871 22.5576 61.2095 22.644 61.9905 22.5005C62.643 22.3808 64.0159 21.8328 65.0414 21.2825C66.0668 20.7321 68.0291 19.4362 69.4024 18.4025C70.7756 17.3688 71.9627 16.5869 72.0403 16.6648C72.1183 16.7427 71.0854 18.5491 69.7451 20.6787C68.4051 22.8086 66.219 26.2348 64.8871 28.2927C63.5556 30.3505 61.2149 34.2044 59.6858 36.8575C58.1566 39.5102 56.9058 42.0629 56.9058 42.5303C56.9058 42.9976 57.1454 43.6204 57.4383 43.9146C57.7315 44.2085 58.1817 44.449 58.439 44.449C58.6966 44.449 59.3471 43.7983 59.8851 43.0034C60.4227 42.2085 61.2681 40.7925 61.7634 39.8572C62.2586 38.9218 64.3569 34.7126 66.4261 30.5035C68.9529 25.3641 70.9112 21.8757 72.3888 19.8828C73.5986 18.2505 76.2946 14.7865 78.38 12.1855C80.4654 9.58415 82.3851 7.05487 82.6464 6.56507C82.9078 6.07527 83.0278 5.58041 82.9132 5.46544C82.7986 5.35048 81.2854 6.45558 79.5508 7.92089C77.8166 9.38653 76.321 10.6695 76.2278 10.7719C76.1346 10.8746 74.838 11.9654 73.3464 13.1957C71.8549 14.4263 69.7108 16.111 68.582 16.9396C67.4529 17.7682 65.8847 18.6597 65.0973 18.9205C64.0861 19.2552 63.559 19.2882 63.3047 19.0331C63.0593 18.7869 63.0532 18.4681 63.2861 18.0314C63.4739 17.6794 65.2597 16.4158 67.2542 15.2236C69.2491 14.0314 71.4739 12.4899 72.1983 11.7984C73.0308 11.0039 73.5159 10.2335 73.5159 9.70592C73.5159 9.24674 73.3329 8.68721 73.1091 8.46272C72.8854 8.23823 72.0651 8.05456 71.2861 8.05456C70.5071 8.05456 69.3556 8.27837 68.7268 8.55218C68.098 8.82599 67.0641 9.51748 66.4285 10.0893C65.7932 10.661 64.9447 11.5763 64.5424 12.1229C64.1403 12.6699 62.8556 14.1369 61.6875 15.3831C60.0454 17.1348 59.1485 17.7954 57.7346 18.294C56.7288 18.6488 55.6173 18.9389 55.2651 18.9389C54.9125 18.9389 54.2607 18.6546 53.8159 18.3066C53.3712 17.959 52.5234 17.4253 51.9315 17.1209C51.3397 16.8165 48.8227 16.1695 46.3383 15.6835C43.8539 15.1974 40.6007 14.3297 39.1091 13.7552C37.3512 13.078 35.96 12.2746 35.1542 11.4712C34.379 10.6984 33.8229 9.76102 33.6772 8.98177C33.5029 8.04912 33.6077 7.44946 34.0892 6.62225C34.4444 6.01204 35.3376 5.09163 36.0746 4.57701C36.8115 4.06238 38.6346 3.33041 40.1261 2.95048C41.6176 2.57054 44.0695 2.16509 45.5746 2.04944C47.28 1.91883 48.7488 1.98515 49.4729 2.22563C50.1119 2.43821 51.1685 3.07121 51.821 3.63211C52.4736 4.19333 53.5203 4.74912 54.1468 4.86782C54.8841 5.00728 55.6817 4.89401 56.4061 4.54742C57.022 4.25286 57.6234 3.70248 57.743 3.32495C57.8624 2.94706 57.8044 2.34606 57.6142 1.98926ZM183.264 13.0042C182.471 12.2182 181.169 11.3188 180.374 11.0056C179.577 10.692 178.433 10.4484 177.831 10.4644C177.229 10.4804 175.92 10.6916 174.922 10.9338C173.924 11.176 172.833 11.6603 172.496 12.0103C172.083 12.4403 171.808 13.4457 171.649 15.1124C171.495 16.7219 171.534 17.5784 171.76 17.5784C171.951 17.5784 172.275 17.0682 172.48 16.4444C172.685 15.8205 173.319 14.6756 173.887 13.8998C174.619 12.9012 175.306 12.3852 176.24 12.1331C176.965 11.9369 177.983 11.879 178.503 12.0042C179.023 12.1294 179.86 12.4399 180.364 12.6947C180.868 12.9491 181.726 13.808 182.272 14.6025C182.816 15.3974 183.492 16.7365 183.772 17.5784C184.052 18.4202 184.389 20.1478 184.52 21.4171L184.759 23.7253L181.284 23.628L177.808 23.5308L177.329 22.0852C177.065 21.2903 176.633 20.6396 176.369 20.6396C176.001 20.6396 175.889 21.1862 175.889 22.9692C175.889 24.2505 175.987 26.4699 176.108 27.9012C176.262 29.7342 176.461 30.5035 176.78 30.5035C177.028 30.5035 177.309 30.159 177.404 29.7382C177.499 29.3175 177.696 28.2076 177.841 27.2722L178.106 25.5716L181.404 25.4743L184.702 25.377L184.7 27.0049C184.698 27.9001 184.556 29.8573 184.383 31.3539C184.205 32.8865 183.703 34.8918 183.232 35.9456C182.773 36.9745 181.906 38.3136 181.306 38.9218C180.685 39.5507 179.83 40.0493 179.323 40.0786C178.833 40.1068 177.974 40.0952 177.414 40.0531C176.855 40.0109 175.899 39.6432 175.29 39.2364C174.681 38.8296 173.82 37.9609 173.377 37.3061C172.933 36.6514 172.348 35.6731 172.076 35.132L171.582 34.1483L171.343 35.9595C171.145 37.4551 171.216 37.9228 171.747 38.6439C172.102 39.1242 172.894 39.8599 173.507 40.2789C174.121 40.6976 175.175 41.1942 175.849 41.3823C176.523 41.5704 177.762 41.7214 178.601 41.7184C179.44 41.7153 180.738 41.4344 181.485 41.0935C182.232 40.7527 183.32 39.9303 183.901 39.2657C184.483 38.601 185.358 37.2106 185.846 36.1762C186.334 35.1415 186.96 33.3273 187.238 32.1444C187.516 30.9614 187.745 28.4321 187.748 26.5236C187.751 24.6154 187.583 22.243 187.376 21.2515C187.168 20.2603 186.483 18.3205 185.853 16.941C185.179 15.4644 184.114 13.8454 183.264 13.0042ZM108.978 12.296C108.693 12.01 107.824 11.5508 107.047 11.2756C106.27 11.0008 105.31 10.7872 104.914 10.8015C104.518 10.8158 103.696 11.0083 103.088 11.2297C102.48 11.4508 101.438 12.0678 100.773 12.6008C100.107 13.1338 99.0698 14.3569 98.4671 15.3188C97.8647 16.2811 97.1119 17.8974 96.7939 18.9107C96.4763 19.9239 96.0474 21.8372 95.8413 23.1624C95.6349 24.4876 95.5553 26.7961 95.6641 28.2927C95.7732 29.7893 96.1017 31.9192 96.3942 33.0257C96.6868 34.132 97.3135 35.8157 97.7871 36.767C98.2603 37.7184 99.1227 38.9922 99.7037 39.598C100.284 40.2034 101.415 40.9503 102.216 41.2575C103.176 41.6252 104.258 41.7592 105.387 41.6503C106.615 41.532 107.459 41.1983 108.36 40.4765C109.052 39.9218 110.095 38.7626 110.678 37.9007C111.261 37.0388 111.901 35.8633 112.101 35.2891C112.3 34.7146 112.342 34.2449 112.194 34.2449C112.045 34.2449 111.644 34.8667 111.303 35.6265C110.961 36.3867 110.089 37.6034 109.365 38.3303C108.391 39.3078 107.664 39.7099 106.578 39.8731C105.769 39.9949 104.75 39.9823 104.312 39.8452C103.874 39.7082 102.967 39.1633 102.297 38.634C101.557 38.0503 100.735 36.8969 100.207 35.7031C99.7291 34.6204 99.1491 32.5393 98.9193 31.0777C98.6641 29.4569 98.579 27.0692 98.701 24.9552C98.8112 23.0495 99.0797 20.6481 99.2983 19.6192C99.5166 18.5903 100.071 16.9437 100.53 15.9603C100.988 14.977 101.848 13.811 102.44 13.3699C103.032 12.9287 104.004 12.476 104.601 12.3637C105.198 12.2515 106.189 12.3287 106.804 12.5352C107.419 12.7416 108.268 13.225 108.692 13.6086C109.114 13.9927 109.834 15.0995 110.29 16.0682C110.747 17.0365 111.222 18.4617 111.345 19.2345C111.468 20.0073 111.675 20.6396 111.806 20.6396C111.936 20.6396 111.976 18.5352 111.895 15.9627C111.814 13.3906 111.632 11.1614 111.492 11.0097C111.351 10.8576 111.143 11.2018 111.029 11.775C110.882 12.5103 110.626 12.8165 110.159 12.8165C109.795 12.8165 109.263 12.5824 108.978 12.296ZM165.041 13.5586C164.202 12.7379 163.088 11.844 162.565 11.5729C162.043 11.3015 160.899 11.009 160.023 10.9229C159.099 10.8321 157.893 10.9675 157.149 11.245C156.444 11.5083 155.359 12.0726 154.739 12.4991C154.118 12.926 153.017 14.0957 152.292 15.0988C151.567 16.1018 150.596 17.8736 150.135 19.0362C149.373 20.9552 149.295 21.6199 149.295 26.2518C149.295 30.7743 149.386 31.6049 150.099 33.5648C150.542 34.7806 151.33 36.4024 151.851 37.1684C152.372 37.9344 153.368 39.0633 154.065 39.6769C154.761 40.2905 155.833 41.0031 156.446 41.2602C157.06 41.5174 158.215 41.7269 159.014 41.7259C159.812 41.7248 161.042 41.5633 161.748 41.3667C162.545 41.1446 163.706 40.332 164.813 39.2214C165.793 38.2381 167.001 36.6 167.498 35.5813C167.994 34.5626 168.634 32.7359 168.919 31.5212C169.205 30.3066 169.44 27.8811 169.443 26.1308C169.446 24.3056 169.218 22.0573 168.908 20.8586C168.612 19.7093 167.963 17.9325 167.468 16.91C166.972 15.8875 165.88 14.3797 165.041 13.5586ZM221.75 12.2209C221.229 11.8573 220.285 11.3835 219.652 11.1678C219.018 10.9522 218.103 10.7916 217.618 10.8107C217.133 10.8301 216.132 11.0063 215.392 11.2022C214.511 11.4355 213.443 12.1654 212.291 13.3212C211.324 14.291 210.136 15.8722 209.649 16.8348C209.163 17.7978 208.54 19.5454 208.264 20.7182C207.989 21.891 207.761 24.4471 207.758 26.3988C207.755 28.9716 207.953 30.6896 208.48 32.6484C208.945 34.3772 209.707 36.0976 210.598 37.4279C211.367 38.5762 212.669 39.9602 213.507 40.5208C214.674 41.301 215.496 41.5636 217.067 41.6582C218.726 41.7578 219.395 41.6279 220.635 40.9646C221.474 40.5157 222.867 39.2701 223.732 38.1963C224.828 36.835 225.578 35.4126 226.209 33.4954C226.737 31.893 227.198 29.5678 227.314 27.9205C227.431 26.2566 227.337 24.0039 227.086 22.442C226.852 20.9831 226.371 19.0549 226.018 18.1569C225.666 17.259 224.774 15.7049 224.036 14.7032C223.299 13.7015 222.27 12.5845 221.75 12.2209ZM263.94 13.9542C263.195 13.144 262.107 12.1838 261.522 11.8209C260.937 11.458 259.697 11.0824 258.766 10.9868C257.836 10.8913 256.604 10.9331 256.028 11.0801C255.453 11.2273 254.256 11.8484 253.369 12.4607C252.455 13.092 251.208 14.4246 250.491 15.5386C249.795 16.6192 248.933 18.4001 248.574 19.4964C248.053 21.0916 247.923 22.4753 247.923 26.4219C247.923 30.9178 248.003 31.5733 248.827 33.8372C249.324 35.2027 250.367 37.1469 251.144 38.1578C252.073 39.366 253.15 40.2918 254.289 40.8616C255.47 41.452 256.567 41.7255 257.735 41.7204C258.685 41.7163 260.053 41.4293 260.804 41.0765C261.55 40.7265 262.619 40.0027 263.179 39.4684C263.739 38.934 264.68 37.7313 265.269 36.7959C265.858 35.8605 266.656 34.1194 267.042 32.9267C267.428 31.7338 267.843 29.5719 267.963 28.1222C268.091 26.5872 268.011 24.2974 267.771 22.6379C267.517 20.879 266.964 18.9549 266.326 17.6086C265.758 16.4093 264.684 14.7647 263.94 13.9542ZM206.355 12.3842C206.136 11.9671 205.789 11.5134 205.584 11.376C205.379 11.2386 204.906 11.1335 204.533 11.1427C204.16 11.1515 203.513 11.2971 203.094 11.4658C202.676 11.6345 202.037 12.2624 201.674 12.8614C201.311 13.46 200.833 14.728 200.612 15.6791C200.39 16.6301 199.839 18.5981 199.387 20.0522C198.891 21.6515 198.157 23.1634 197.532 23.8787C196.797 24.7175 196.211 25.0614 195.515 25.0614H194.533V19.4267C194.533 16.3277 194.681 13.5137 194.863 13.1733C195.044 12.8331 195.578 12.4576 196.049 12.3389C196.52 12.2202 196.906 11.9729 196.906 11.7896C196.906 11.591 195.33 11.4559 193.007 11.4559C190.863 11.4559 189.109 11.5753 189.109 11.7216C189.109 11.8675 189.565 12.1597 190.123 12.3709C190.701 12.5899 191.283 13.143 191.479 13.6583C191.685 14.2035 191.821 19.2624 191.821 26.4219C191.821 33.0012 191.679 38.6568 191.502 39.1231C191.296 39.667 190.817 40.0449 190.146 40.1929C189.576 40.3184 189.109 40.5623 189.109 40.7344C189.109 40.9072 190.859 41.0476 193.007 41.0476C195.38 41.0476 196.906 40.9146 196.906 40.7075C196.906 40.5204 196.624 40.3674 196.28 40.3674C195.936 40.3674 195.412 40.0976 195.115 39.7684C194.668 39.2731 194.563 38.1099 194.509 33.0654C194.463 28.728 194.557 26.924 194.833 26.8318C195.047 26.7603 195.639 27.1583 196.148 27.7165C196.658 28.2746 197.87 30.4692 198.841 32.5937C199.812 34.7177 201.069 37.4891 201.634 38.7517L202.661 41.0476H205.038C206.345 41.0476 207.414 40.9112 207.414 40.7442C207.414 40.5776 207.04 40.3469 206.582 40.2316C206.124 40.1163 205.363 39.5136 204.891 38.8922C204.419 38.2708 203.341 36.2439 202.496 34.3881C201.652 32.5321 200.62 30.325 200.204 29.4831C199.788 28.6413 199.106 27.4804 198.688 26.9032L197.927 25.8535L198.919 24.012C199.465 22.9991 200.13 21.4814 200.398 20.6396C200.665 19.7978 201.153 18.0631 201.482 16.7848C201.812 15.5069 202.267 14.3893 202.495 14.3015C202.723 14.2137 203.468 14.4726 204.15 14.8767C205.109 15.4444 205.498 15.5226 205.861 15.2205C206.119 15.0052 206.426 14.4498 206.542 13.9859C206.658 13.5222 206.574 12.8015 206.355 12.3842ZM119.231 12.442C119.817 12.2372 120.296 11.9314 120.296 11.7627C120.296 11.594 118.541 11.4559 116.397 11.4559C114.119 11.4559 112.499 11.5923 112.499 11.7842C112.499 11.9644 112.836 12.2933 113.248 12.5144C113.659 12.7355 114.25 13.2308 114.56 13.6148C114.87 13.9991 115.314 14.8566 115.546 15.5209C115.778 16.1848 117.252 20.325 118.822 24.7212C120.392 29.1175 121.823 33.0661 122.003 33.4957C122.182 33.9253 122.329 34.6697 122.329 35.15C122.329 35.6303 121.996 36.6177 121.589 37.3449C121.173 38.0871 120.591 38.6667 120.261 38.6667C119.937 38.6667 119.195 38.3986 118.611 38.0714C117.588 37.4976 117.533 37.5 117.058 38.1364C116.788 38.4997 116.567 39.15 116.567 39.582C116.567 40.014 116.872 40.6735 117.245 41.0476C117.618 41.4218 118.369 41.7279 118.916 41.7279C119.461 41.7279 120.15 41.485 120.446 41.1881C120.742 40.8915 121.346 40.1643 121.788 39.5725C122.23 38.981 122.97 37.3486 123.432 35.9456C123.893 34.5425 125.148 30.1039 126.221 26.0818C127.293 22.0597 128.486 17.6974 128.873 16.3879C129.37 14.7015 129.902 13.6913 130.698 12.9243C131.316 12.329 131.821 11.7549 131.821 11.6488C131.821 11.5427 130.524 11.4559 128.94 11.4559C127.355 11.4559 126.058 11.5913 126.058 11.7569C126.058 11.9226 126.459 12.3216 126.949 12.6437C127.788 13.1954 127.83 13.3505 127.669 15.3188C127.575 16.4682 126.872 19.7042 126.106 22.5103C125.341 25.3165 124.549 28.2784 124.347 29.0923C124.145 29.9063 123.878 30.4702 123.754 30.3453C123.629 30.2206 123.352 29.5546 123.137 28.8654C122.922 28.1763 121.807 25.0869 120.658 22.0001C119.509 18.9134 118.479 15.5838 118.368 14.6012C118.169 12.8365 118.18 12.8097 119.231 12.442ZM147.073 12.3069C147.633 12.1831 148.092 11.9413 148.092 11.7692C148.092 11.5876 144.819 11.4559 140.296 11.4559C136.007 11.4559 132.499 11.5869 132.499 11.7467C132.499 11.9069 132.993 12.1797 133.596 12.3535C134.2 12.5273 134.897 13.0467 135.144 13.5083C135.491 14.1535 135.553 15.6818 135.412 20.1294C135.311 23.3097 134.999 27.4083 134.718 29.2376C134.437 31.0668 133.894 33.5988 133.511 34.864C133.128 36.1289 132.512 37.6643 132.141 38.2755C131.771 38.8867 131.014 39.6456 130.46 39.9619L129.453 40.5374L129.45 45.101C129.449 47.6109 129.534 49.5779 129.64 49.4721C129.745 49.3667 130.048 48.3459 130.314 47.2038C130.579 46.0619 131.179 44.5197 131.647 43.7765C132.114 43.0333 132.91 42.1537 133.415 41.8214C134.178 41.3201 135.094 41.2177 138.815 41.2177C142.809 41.2177 143.398 41.2939 144.23 41.9174C144.744 42.302 145.46 43.1891 145.822 43.8884C146.184 44.5881 146.753 46.1864 147.086 47.4408L147.692 49.7211L147.723 45.0867L147.753 40.4524L146.78 40.2571C146.143 40.1293 145.735 39.7918 145.599 39.2793C145.484 38.8486 145.387 32.9382 145.385 26.1444C145.382 18.6199 145.512 13.5457 145.717 13.162C145.901 12.8151 146.512 12.4304 147.073 12.3069ZM245.039 12.3069C245.599 12.1831 246.058 11.9413 246.058 11.7692C246.058 11.5876 242.851 11.4559 238.431 11.4559C234.236 11.4559 230.804 11.5784 230.804 11.7277C230.804 11.8773 231.321 12.1872 231.953 12.4165C232.649 12.6688 233.182 13.1321 233.304 13.5903C233.416 14.0066 233.506 17.7144 233.505 21.8301C233.505 25.9457 233.355 30.7335 233.173 32.4695C232.972 34.3847 232.572 36.1568 232.155 36.9762C231.77 37.7333 231.22 38.3265 230.904 38.3265C230.593 38.3265 229.994 38.001 229.572 37.6031C229.147 37.2027 228.575 36.9684 228.289 37.0786C228.005 37.1878 227.672 37.6823 227.548 38.1779C227.408 38.7367 227.531 39.5167 227.872 40.2333C228.338 41.2153 228.594 41.3878 229.586 41.3878C230.526 41.3878 230.975 41.1248 231.91 40.0299C232.547 39.283 233.244 38.0833 233.459 37.3643C233.673 36.6449 234 34.6157 234.185 32.8549C234.37 31.094 234.524 25.9413 234.527 21.4049L234.533 13.1566H237.584H240.635V25.7195C240.635 32.7372 240.494 38.6534 240.316 39.1231C240.11 39.667 239.63 40.0449 238.96 40.1929C238.389 40.3184 237.923 40.5623 237.923 40.7344C237.923 40.9078 239.739 41.0476 241.99 41.0476C244.476 41.0476 246.058 40.9153 246.058 40.7075C246.058 40.5204 245.753 40.3674 245.38 40.3674C245.007 40.3674 244.397 40.0612 244.024 39.6871C243.371 39.0313 243.346 38.5534 243.346 26.3995C243.346 18.7154 243.478 13.5461 243.683 13.162C243.867 12.8151 244.478 12.4304 245.039 12.3069ZM282.902 14.9852C282.803 13.1376 282.71 11.5879 282.696 11.541C282.681 11.494 279.846 11.4559 276.397 11.4559C272.948 11.4559 270.127 11.5705 270.128 11.711C270.129 11.8515 270.563 12.2131 271.092 12.5151C271.939 12.9981 272.08 13.3195 272.276 15.2008C272.399 16.3763 272.498 21.1039 272.497 25.7066C272.496 30.3093 272.397 35.3347 272.278 36.8745C272.071 39.5384 272.014 39.6952 271.093 40.1037C270.561 40.3401 270.126 40.649 270.126 40.7905C270.126 40.932 271.652 41.0476 273.516 41.0476C275.381 41.0476 276.906 40.9051 276.906 40.7313C276.906 40.5571 276.566 40.3657 276.151 40.3061C275.737 40.2463 275.205 39.8146 274.97 39.3469C274.649 38.7089 274.542 35.3327 274.538 25.8267L274.533 13.1566H277.745C280.803 13.1566 280.985 13.1978 281.516 14.0117C281.824 14.4821 282.153 15.5573 282.247 16.4005C282.342 17.244 282.568 18.0263 282.75 18.1393C282.961 18.2702 283.016 17.1291 282.902 14.9852ZM290.827 12.3012C291.374 12.1808 291.821 11.9413 291.821 11.7692C291.821 11.595 289.939 11.4559 287.584 11.4559C285.253 11.4559 283.346 11.5784 283.346 11.7277C283.346 11.8773 283.863 12.1872 284.496 12.4165C285.191 12.6688 285.724 13.1321 285.847 13.5903C285.958 14.0066 286.051 19.8957 286.054 26.677C286.058 38.5565 286.034 39.0316 285.38 39.6871C285.007 40.0612 284.397 40.3674 284.024 40.3674C283.652 40.3674 283.346 40.5204 283.346 40.7075C283.346 40.916 284.985 41.0476 287.584 41.0476C289.914 41.0476 291.821 40.9116 291.821 40.7452C291.821 40.5793 291.28 40.3412 290.619 40.2167C289.761 40.0551 289.325 39.7466 289.094 39.1364C288.916 38.6667 288.77 37.8323 288.77 37.2827C288.77 36.733 289.403 35.0976 290.177 33.6484C290.951 32.1994 291.695 30.8607 291.831 30.6736C291.966 30.4865 293.328 27.8478 294.857 24.8097C296.386 21.7716 297.786 19.1937 297.968 19.0808C298.182 18.9481 298.263 22.4352 298.196 28.9059C298.1 38.2095 298.045 38.9884 297.446 39.6521C297.091 40.0456 296.443 40.3674 296.006 40.3674C295.568 40.3674 295.211 40.5242 295.211 40.7157C295.211 40.9432 297.228 41.0313 301.034 40.9708L306.858 40.8776L308.407 37.452C309.259 35.568 310.49 32.8263 311.143 31.3586C311.796 29.8913 312.485 28.3716 312.676 27.9814C312.874 27.5784 313.422 27.2257 313.947 27.1648L314.872 27.0569V32.9563C314.872 37.7449 314.773 38.9976 314.344 39.6112C314.054 40.0272 313.52 40.3674 313.158 40.3674C312.795 40.3674 312.499 40.5204 312.499 40.7075C312.499 40.9136 313.968 41.0476 316.228 41.0476C318.488 41.0476 319.957 40.9136 319.957 40.7075C319.957 40.5204 319.662 40.3674 319.303 40.3674C318.943 40.3674 318.409 40.1269 318.116 39.833C317.65 39.3653 317.584 37.6691 317.589 26.3127C317.592 19.1702 317.708 13.1474 317.846 12.9284C317.985 12.7093 318.517 12.425 319.028 12.2964C319.539 12.1678 319.957 11.926 319.957 11.7593C319.957 11.5923 318.164 11.4597 315.974 11.4641C313.783 11.4685 311.38 11.6134 310.635 11.7865C309.746 11.9923 308.85 12.5607 308.035 13.4359C307.352 14.1702 306.628 15.3644 306.427 16.0896C306.226 16.8151 306.061 18.144 306.06 19.0433C306.059 19.9427 306.225 21.3447 306.43 22.1586C306.634 22.9729 307.282 24.1532 307.87 24.7814C308.459 25.4097 309.271 26.1508 309.676 26.428L310.413 26.9321L308.318 31.694C307.166 34.3129 305.867 37.082 305.431 37.8469C304.995 38.6123 304.233 39.4657 303.738 39.7439C303.243 40.0221 302.562 40.1867 302.225 40.1099C301.888 40.0327 301.469 39.5901 301.293 39.1262C301.116 38.6568 300.974 33.1008 300.974 26.6124C300.974 20.1937 301.068 14.4699 301.183 13.8927C301.344 13.0818 301.653 12.7566 302.539 12.4631C303.169 12.2542 303.685 11.9423 303.685 11.7695C303.685 11.5947 301.809 11.4559 299.448 11.4559C296.849 11.4559 295.211 11.5876 295.211 11.7961C295.211 11.9831 295.482 12.1362 295.813 12.1362C296.145 12.1362 296.746 12.3682 297.149 12.6515C297.628 12.9882 297.961 13.693 298.109 14.6835C298.308 16.0117 298.178 16.5066 297.063 18.6746C296.363 20.0359 295.183 22.2978 294.442 23.7008C293.7 25.1039 292.26 27.8199 291.242 29.7359C290.224 31.6522 289.242 33.312 289.061 33.4243C288.85 33.5552 288.769 30.0325 288.836 23.6141C288.915 15.9464 289.044 13.4736 289.387 13.06C289.633 12.7631 290.281 12.4216 290.827 12.3012ZM65.9091 13.5818C66.2427 13.0671 66.7563 12.46 67.0498 12.2321C67.3434 12.0042 67.7746 11.8127 68.0075 11.8069C68.2407 11.8008 68.4312 11.8828 68.4312 11.9886C68.4312 12.0944 68.2742 12.4753 68.082 12.8352C67.8902 13.1954 67.2875 13.7209 66.743 14.0035C66.1986 14.2859 65.6515 14.5171 65.5278 14.5171C65.4037 14.5171 65.5752 14.0964 65.9091 13.5818ZM214.793 13.2131C215.307 12.8454 216.107 12.4777 216.571 12.3954C217.035 12.3134 217.796 12.3161 218.262 12.4018C218.728 12.4876 219.566 12.8151 220.124 13.1301C220.729 13.4712 221.519 14.4522 222.078 15.5556C222.594 16.5746 223.241 18.4797 223.515 19.7893C223.794 21.125 224.015 24.0059 224.019 26.3512C224.022 28.8423 223.809 31.592 223.491 33.1539C223.197 34.5956 222.579 36.4296 222.116 37.2286C221.654 38.0279 220.674 39.081 219.939 39.5691C218.822 40.3109 218.341 40.4265 217.004 40.2752C215.694 40.1272 215.179 39.8503 214.148 38.7418C213.295 37.8238 212.661 36.6442 212.177 35.0704C211.784 33.7954 211.314 31.3063 211.131 29.5396C210.914 27.4352 210.915 25.1406 211.134 22.8879C211.318 20.9967 211.638 18.8369 211.844 18.0886C212.05 17.3403 212.588 16.0876 213.038 15.3046C213.489 14.5219 214.278 13.5808 214.793 13.2131ZM256.196 12.6097C256.68 12.5035 257.228 12.3787 257.414 12.3325C257.601 12.2862 258.363 12.3852 259.109 12.5529C259.855 12.7209 260.811 13.1838 261.234 13.5825C261.657 13.9808 262.364 15.0811 262.805 16.0277C263.246 16.9739 263.768 18.5151 263.964 19.4518C264.161 20.3886 264.426 22.6859 264.555 24.5563C264.697 26.6379 264.633 29.1257 264.388 30.9682C264.169 32.6243 263.745 34.6129 263.447 35.3874C263.149 36.1623 262.529 37.3065 262.069 37.9303C261.61 38.5541 260.756 39.3572 260.172 39.7146C259.587 40.0725 258.517 40.3653 257.793 40.366C257.056 40.3667 255.983 40.0606 255.353 39.6701C254.734 39.2864 253.913 38.4599 253.526 37.8337C253.141 37.2071 252.507 35.799 252.118 34.7044C251.566 33.1529 251.372 31.5903 251.234 27.6124C251.099 23.6974 251.184 21.8974 251.601 19.8763C251.9 18.4277 252.438 16.6654 252.796 15.9603C253.155 15.2552 253.868 14.2563 254.382 13.7406C254.897 13.2246 255.713 12.7158 256.196 12.6097ZM153.508 17.8212C154.035 16.1345 154.619 15.1042 155.679 13.9947C157.047 12.562 157.232 12.4763 158.966 12.4777C160.193 12.4784 161.166 12.7005 161.894 13.1454C162.493 13.5124 163.374 14.4335 163.852 15.1923C164.329 15.9515 164.982 17.526 165.301 18.6913C165.747 20.3147 165.881 22.16 165.875 26.592C165.868 31.1927 165.739 32.8059 165.243 34.4867C164.871 35.7507 164.146 37.1551 163.441 37.982C162.792 38.7425 161.827 39.5905 161.295 39.866C160.764 40.1418 159.745 40.3674 159.032 40.3674C158.318 40.3674 157.357 40.1041 156.897 39.7827C156.436 39.4609 155.796 38.8871 155.476 38.5071C155.156 38.1272 154.571 37.1388 154.175 36.3106C153.78 35.4823 153.222 33.5692 152.935 32.059C152.552 30.0379 152.463 28.1008 152.6 24.7212C152.735 21.412 152.988 19.4848 153.508 17.8212ZM136.19 26.0818C136.386 23.9304 136.646 20.1423 136.769 17.6634L136.993 13.1566H139.831H142.668L142.663 25.8267C142.66 33.1978 142.524 38.7099 142.337 39.0068C142.085 39.4075 141.069 39.5412 137.597 39.6289C135.166 39.6908 133.177 39.6327 133.177 39.5C133.177 39.3677 133.568 38.1718 134.046 36.8425C134.524 35.5133 135.122 33.4284 135.375 32.2097C135.628 30.9906 135.995 28.2331 136.19 26.0818ZM309.613 15.6134C309.94 14.8134 310.528 13.9331 310.92 13.6576C311.312 13.3821 312.12 13.1566 312.716 13.1566C313.312 13.1566 314.041 13.2495 314.336 13.3631C314.798 13.541 314.872 14.4345 314.872 19.8256V26.0818L314.109 26.0743C313.69 26.0702 312.707 25.7757 311.926 25.4195C310.892 24.9488 310.3 24.3719 309.753 23.3012C309.184 22.1876 309.004 21.2515 309.011 19.4491C309.016 17.9804 309.247 16.5107 309.613 15.6134ZM34.0244 26.8444C39.2447 25.0549 45.0414 23.1719 46.9058 22.66C48.7702 22.1484 50.5536 21.7137 50.8688 21.6947C51.1841 21.6756 51.5339 21.8093 51.6464 21.992C51.759 22.1746 51.941 23.0876 52.0512 24.0205C52.2173 25.4274 52.0963 26.0352 51.3427 27.5811C50.7471 28.8025 49.5617 30.2627 47.9054 31.8144C46.1332 33.4753 44.3898 34.6898 42.0739 35.8772C40.2566 36.8092 37.0159 38.2595 34.8719 39.1003C32.7277 39.9412 29.5243 40.9847 27.7531 41.4187C25.3687 42.0034 23.609 42.202 20.9734 42.185C18.1178 42.1663 16.8894 41.9898 14.7602 41.2922C13.3005 40.8136 11.5182 40.0136 10.7995 39.514C10.0809 39.0143 9.33613 38.1537 9.14427 37.6014C8.85207 36.7602 8.9019 36.5058 9.45241 36.033C9.81376 35.7228 11.2188 35.0218 12.5751 34.4755C13.9314 33.9294 17.1768 32.7209 19.787 31.7899C22.3972 30.8593 28.8039 28.6335 34.0244 26.8444Z" fill="white"/>
</svg>
