<svg width="160" height="48" viewBox="0 0 160 48" fill="none" xmlns="http://www.w3.org/2000/svg">
<path fill-rule="evenodd" clip-rule="evenodd" d="M151.553 29.6826C151.553 26.1745 149.166 24.0993 146.244 24.0993C142.897 24.0993 140.824 26.4916 140.824 29.789C140.74 32.7312 143.055 35.1877 145.995 35.2679C146.077 35.272 146.161 35.272 146.244 35.27C149.166 35.27 151.555 33.0362 151.555 29.6826H151.553ZM160 42.5692L152.032 42.6374V38.8503C151.13 41.6199 147.783 43.3459 144.544 43.3459C137.425 43.3459 132.006 38.2402 132.006 29.5181C132.006 21.4903 137.638 15.7946 144.384 15.7946C147.995 15.7946 150.759 18.0725 151.555 20.1477V16.2943H160V42.5672V42.5692ZM130.034 33.5761C130.034 39.5708 125.545 43.5305 117.737 43.5305C110.947 43.5305 107.738 41.066 106.029 37.2649C105.92 36.8896 105.92 36.5684 106.189 36.4621L112.015 34.2143C112.205 34.1541 112.412 34.2444 112.496 34.427C113.087 36.0326 114.851 37.317 116.829 37.317C119.234 37.317 120.304 36.3537 120.304 35.1736C120.304 33.7286 119.182 32.978 115.065 31.9625C109.985 30.6781 106.456 28.8578 106.456 23.5053C106.456 17.8818 111.053 14.7229 118.486 14.7229C124.423 14.7229 127.95 16.9707 129.018 20.5029C129.072 20.824 129.072 21.1451 128.752 21.2555L122.815 23.3588C122.495 23.5193 122.445 23.5193 122.228 23.1982C121.318 21.7532 119.929 20.7899 118.166 20.7899C116.079 20.7899 115.172 21.4823 115.172 22.6604C115.172 23.7341 116.402 24.2157 120.998 25.1791C126.347 26.2488 130.034 28.5407 130.034 33.5761ZM94.6552 29.6826C94.6552 26.1745 92.2643 24.0993 89.3422 24.0993C85.9973 24.0993 83.9271 26.4916 83.9271 29.789C83.8409 32.7312 86.1517 35.1837 89.0897 35.2679C89.1739 35.272 89.2581 35.272 89.3422 35.27C92.2643 35.27 94.6552 33.0362 94.6552 29.6826ZM103.103 42.5692L95.1322 42.6374V38.8503C94.2303 41.6199 90.8834 43.3459 87.6427 43.3459C80.5241 43.3459 75.1089 38.2402 75.1089 29.5181C75.1089 21.4903 80.7405 15.7946 87.4864 15.7946C91.0959 15.7946 93.8576 18.0725 94.6552 20.1477V16.2943H103.103V42.5672V42.5692Z" fill="#1D6FF2"/>
<path fill-rule="evenodd" clip-rule="evenodd" d="M66.1164 15.5739H65.8759L65.7436 15.7705L57.8413 26.9632L57.8614 9.10148V8.65393H57.4144L48.8668 8.64791H48.4199V9.09345L48.3898 42.2943V42.7418H48.8347L57.3824 42.7458L57.8293 42.7498V42.3023L57.8393 32.4964L64.6814 42.5592L64.8137 42.7559H75.133L74.668 42.0595L66.1404 29.3114L75.3194 16.2803L75.7963 15.5839H74.9526L66.1144 15.5739H66.1164ZM0 4.94912L13.6181 0V41.8186L0 46.7617V4.94912ZM17.3638 31.6755L17.3237 16.2923L33.0241 10.9459V26.4314L23.9254 29.4779L33.0241 32.5546V48L17.3638 42.794V31.6755Z" fill="#1D6FF2"/>
</svg>
