<svg width="100" height="80" viewBox="0 0 100 80" fill="none" xmlns="http://www.w3.org/2000/svg">
<path d="M30.6925 75.8676C27.4029 77.2046 24.0939 78.4662 20.574 79.0819C13.8677 80.2552 7.29716 79.6222 0.823449 77.6308C0.623951 77.5574 0.429116 77.4718 0.240021 77.3746C0.487602 77.013 0.885881 76.9871 1.19805 76.858C6.60012 74.6831 11.5456 71.5129 15.7773 67.5123C16.378 66.9504 16.3457 66.6921 15.7623 66.128C4.59314 55.3485 -0.679261 42.1708 0.0699413 26.6808C0.500517 17.8712 3.26697 9.75701 8.09372 2.35326C8.27672 2.07339 8.36498 1.65788 8.82785 1.66003C9.34024 2.16596 9.04314 2.73647 8.94411 3.279C7.86767 9.3738 9.10342 14.9045 13.0346 19.7248C18.5524 26.5043 27.6892 28.5129 35.5817 24.769C39.2717 23.0187 42.5527 20.6635 45.7217 18.1296C50.006 14.7043 54.3053 11.3006 58.8543 8.22632C64.7984 4.22196 71.2829 1.55239 78.3982 0.536231C81.8772 0.0389158 85.3756 -0.191444 88.8891 0.191769C89.3197 0.239132 89.7503 0.264968 90.0172 0.691239C90.0646 1.36294 89.4919 1.38877 89.0872 1.51149C87.3332 2.03885 85.6085 2.65904 83.9203 3.36942C76.6005 6.4911 70.9664 11.4169 67.1278 18.4396C64.1698 23.8433 61.8813 29.5226 59.7004 35.2579C56.9576 42.4722 53.9996 49.5939 50.4861 56.4702C48.4753 60.41 46.2148 64.2206 43.0931 67.3939C39.8389 70.6993 36.0679 73.4523 31.9283 75.5447C31.5407 75.7707 31.1102 75.7837 30.6925 75.8676Z" fill="#00E6B9"/>
<path d="M30.6924 75.8676C30.8592 75.7356 31.0355 75.6162 31.2198 75.5102C39.7173 71.353 45.9089 64.9482 50.0984 56.4787C53.9327 48.7284 57.2611 40.7627 60.3095 32.6743C62.0568 28.0448 64.0695 23.5198 66.3376 19.122C71.2763 9.53734 79.27 3.93124 89.4294 1.0593C89.6684 0.992563 89.8944 0.889224 90.1269 0.803109C90.2268 0.714029 90.3573 0.667171 90.491 0.672391C90.6247 0.677611 90.7512 0.734504 90.8438 0.831097C94.9124 6.65772 97.7173 13.2708 99.0786 20.2458C104.172 46.2956 87.6511 72.0311 61.7563 78.3003C58.527 79.084 55.2417 79.6308 51.8918 79.6114C50.6001 79.6014 49.3083 79.6014 48.0166 79.6114C42.77 79.5404 37.7237 78.4359 32.8022 76.6792C32.081 76.4273 31.3921 76.1388 30.6924 75.8676Z" fill="#CDFAF0"/>
<path d="M47.5817 29.6949C47.5817 28.2094 48.6581 27.049 49.9865 27.0619C51.3148 27.0749 52.3546 28.2697 52.3353 29.753C52.3159 31.2364 51.233 32.4269 49.9283 32.4075C48.6237 32.3882 47.5666 31.161 47.5817 29.6949Z" fill="#000346"/>
</svg>
