<svg width="110" height="94" viewBox="0 0 110 94" fill="none" xmlns="http://www.w3.org/2000/svg">
<path d="M75.802 72.0172C74.1934 59.9451 68.2237 50.0996 62.1206 50.0508C56.0164 50.0508 47.1004 59.9079 41.9043 72.036C36.7095 84.1675 42.5874 94 55.6557 94C68.8073 93.8628 77.4075 84.1115 75.802 72.0172Z" fill="#E31B23"/>
<path d="M13.4946 39.8815C5.69163 39.8815 0 46.0187 0 53.7884C0 61.5547 5.69163 67.5083 13.4946 67.5083C17.8327 67.5083 21.9336 65.5711 24.6422 62.2035C24.3484 61.9281 23.6001 60.339 21.0852 60.339C18.7171 60.339 18.1835 62.6994 13.4946 62.6994C8.9023 62.6994 5.09359 58.8209 5.09359 53.7884C5.09359 48.7525 8.9023 44.6965 13.4946 44.6965C17.6805 44.6965 18.6869 47.173 20.8394 47.173C22.9935 47.173 24.2499 45.459 24.5424 45.1897C21.8355 41.819 17.8327 39.8815 13.4946 39.8815Z" fill="black"/>
<path d="M41.017 40.6863H30.0477C28.1932 40.6863 26.8953 41.7945 26.8953 43.5545V45.1648H31.7855C31.7855 45.1648 31.9717 61.6096 31.7612 63.3851L31.7564 63.3912C31.6888 64.7476 31.0997 67.9957 27.958 69.4616C25.3789 70.6647 25.3508 71.8155 25.2212 73.6005C25.2575 73.7289 25.3117 73.8084 25.3854 73.8118H25.3995C25.4101 73.8118 25.4197 73.8118 25.43 73.8053C25.5223 73.7807 27.9909 73.1777 28.3506 73.0278L28.34 73.0186C30.6591 72.3022 34.2051 70.7227 35.8967 67.4506C35.8967 67.4506 37.482 65.0237 37.4497 59.8195V45.1651H37.6808C39.5367 45.1651 41.0174 44.0569 41.0174 42.2969V40.6835" fill="black"/>
<path d="M97.5916 32.0357C86.15 27.5605 74.5905 28.0288 71.6387 33.334C68.7597 38.7166 73.031 51.156 81.1706 61.5578C89.3086 71.9602 100.796 71.6138 107.138 60.2352C113.407 48.8921 109.001 36.5033 97.5916 32.0357Z" fill="#F8971D"/>
<path d="M39.4084 35.6692C49.562 42.5723 60.9363 44.6587 64.9648 40.1818C69.0314 35.6692 67.6289 22.4878 62.0199 10.5372C56.412 -1.4076 45.1288 -3.61478 36.4093 6.06789C27.7975 15.7414 29.2812 28.7865 39.4084 35.6692Z" fill="#007DC3"/>
</svg>
