<svg width="140" height="48" viewBox="0 0 140 48" fill="none" xmlns="http://www.w3.org/2000/svg">
<path d="M0.410524 0.112L0 47.6359H10.3657L10.3942 0.167999L0.410524 0.112Z" fill="#2449A4"/>
<path d="M10.2886 23.1598L28.9901 47.7759L42.6199 47.8319L22.5728 23.4118L42.0726 0.111958L29.0186 0.0559578L10.2886 23.1598Z" fill="#2449A4"/>
<path d="M84.5928 22.3757C84.5928 22.3757 89.4079 19.1832 89.4364 12.9662L89.4393 12.014C88.5327 1.06418 77.2063 0.0840111 77.2063 0.0840111L48.2161 0L48.0422 47.804L78.7116 48C78.7116 48 90.4257 47.6639 91.834 34.2777L91.8368 33.3256C91.8653 27.1085 84.5928 22.3757 84.5928 22.3757ZM57.9746 7.61728C57.9746 7.61728 67.9582 7.1972 73.332 7.78529C78.7059 8.37339 78.6831 13.3022 78.6831 13.3022C77.5028 19.3232 73.2836 18.7351 73.2836 18.7351L57.9204 18.6791L57.9746 7.61728ZM73.9507 40.2427L57.8235 40.1587L57.8862 26.4084L73.8224 26.4644C73.8224 26.4644 80.9238 26.8845 80.5104 33.6616C80.137 39.6826 73.9507 40.2427 73.9507 40.2427Z" fill="#2449A4"/>
<path d="M136.338 0.42001L108.115 0.223976C108.115 0.223976 94.6734 1.09212 94.8074 13.9183C94.9385 26.7444 109.726 26.4363 110.296 26.8284L119.322 26.6604C119.322 26.6604 126.62 26.5204 127.937 31.8132C129.257 37.0781 124.063 39.9066 124.063 39.9066L121.756 40.4387L96.9883 40.3267L96.9541 47.6919L125.753 47.8319C125.753 47.8319 138.043 47.4959 139.825 35.4258C141.61 23.3838 129.149 19.5472 129.149 19.5472L123.581 19.1551L111.294 19.0151C111.294 19.0151 106.117 18.119 106.33 13.2181C106.544 8.31733 112.306 7.78523 112.306 7.78523H136.307L136.338 0.42001Z" fill="#2449A4"/>
</svg>
