<?xml version="1.0" encoding="utf-8"?>
<!-- Generator: Adobe Illustrator 23.0.1, SVG Export Plug-In . SVG Version: 6.00 Build 0)  -->
<svg version="1.1" id="Слой_1" xmlns="http://www.w3.org/2000/svg" xmlns:xlink="http://www.w3.org/1999/xlink" x="0px" y="0px"
	 viewBox="0 0 20 21" style="enable-background:new 0 0 20 21;" xml:space="preserve">
<style type="text/css">
	.st0{fill-rule:evenodd;clip-rule:evenodd;fill:#C41010;}
	.st1{fill-rule:evenodd;clip-rule:evenodd;fill:#E24040;}
</style>
<path class="st0" d="M4.9,12.7c-0.8,0-1.5,0.7-1.5,1.6c0,0.9,0.7,1.6,1.5,1.6s1.5-0.7,1.5-1.6C6.5,13.4,5.8,12.7,4.9,12.7z M10,12.7
	c-0.8,0-1.5,0.7-1.5,1.6c0,0.9,0.7,1.6,1.5,1.6c0.8,0,1.5-0.7,1.5-1.6C11.5,13.4,10.8,12.7,10,12.7z M13.5,14.3
	c0-0.9,0.7-1.6,1.5-1.6s1.5,0.7,1.5,1.6c0,0.9-0.7,1.6-1.5,1.6S13.5,15.1,13.5,14.3z M4.9,17.4c-0.8,0-1.5,0.7-1.5,1.6
	c0,0.9,0.7,1.6,1.5,1.6s1.5-0.7,1.5-1.6C6.5,18.1,5.8,17.4,4.9,17.4z M8.5,18.9c0-0.9,0.7-1.6,1.5-1.6c0.8,0,1.5,0.7,1.5,1.6
	c0,0.9-0.7,1.6-1.5,1.6C9.2,20.5,8.5,19.8,8.5,18.9z M15.1,17.4c-0.8,0-1.5,0.7-1.5,1.6c0,0.9,0.7,1.6,1.5,1.6s1.5-0.7,1.5-1.6
	C16.6,18.1,15.9,17.4,15.1,17.4z"/>
<path class="st1" d="M18.1,8.4L15,7.6c0-0.3,0-0.6,0.1-0.9c0-0.3,0.1-0.6,0.1-0.9c0.1-0.8-0.4-1.5-1.1-1.7C10.3,2.9,7.3,3.6,6,4
	C5.3,4.2,4.9,5,5,5.7l0.2,1.9l0,0l0,0c0,0,0,0,0,0C4.3,7.8,3.3,8,2.3,8.3c-0.5-0.8-0.6-1.5-0.6-2C1.8,5.7,2,5.2,2.4,4.7
	c0.8-0.9,1.9-1.5,2.2-1.6C4.9,3,6.7,2.5,8.9,2.3c2.3-0.2,4.9,0,6.9,1.1c1.5,0.8,2.1,1.8,2.3,2.7C18.4,7,18.3,7.8,18.1,8.4z
	 M19.6,9.2c-0.3,0.8-1.2,1.1-1.9,0.9l-3.2-0.9c-0.6-0.2-1.2-0.8-1.2-1.6c0-0.4,0.1-0.8,0.1-1.3c0-0.2,0-0.5,0.1-0.7
	c-3.2-1-5.8-0.4-6.9-0.1l0.2,1.9c0.1,0.9-0.5,1.7-1.3,1.9C4.7,9.5,3.6,9.7,2.7,10c-0.6,0.2-1.4,0-1.8-0.7C0.2,8.2-0.1,7.1,0,6.1
	c0.1-1,0.6-1.8,1.1-2.5c1-1.3,2.5-2,2.8-2.1C4,1.5,4,1.4,4.1,1.4c0.3-0.1,2.2-0.7,4.7-0.8c2.4-0.2,5.4-0.1,7.9,1.4
	c1.8,1,2.8,2.4,3.1,3.7C20.2,7,20,8.3,19.6,9.2z"/>
</svg>
