<svg width="16" height="15" viewBox="0 0 16 15" fill="none" xmlns="http://www.w3.org/2000/svg">
<path fill-rule="evenodd" clip-rule="evenodd" d="M3.72344 1.64762L3.72394 1.64826L3.72344 1.64762ZM3.75569 1.69827L5.25909 4.06717C5.07742 4.23774 4.87926 4.40668 4.66599 4.5885C4.4827 4.74477 4.28825 4.91055 4.08352 5.09505C3.5761 5.55234 3.47809 6.28779 3.80649 6.86015C5.54307 9.88677 7.91165 11.264 8.97149 11.7584C9.60998 12.0563 10.3037 11.8212 10.6899 11.3344L11.7302 10.023C11.7302 10.023 11.7311 10.0223 11.7326 10.022C11.7342 10.0217 11.7371 10.022 11.7371 10.022C11.7371 10.022 11.7394 10.0225 11.7415 10.0239C12.3477 10.3944 13.1935 10.8979 13.9704 11.3242C13.8308 12.1584 13.5103 12.6443 13.157 12.9414C12.7859 13.2534 12.306 13.4176 11.7708 13.4768C10.7021 13.5952 9.6172 13.2741 9.37659 13.1959C9.11108 13.0615 7.65541 12.3027 6.10025 11.073C4.49662 9.8051 2.88863 8.1153 2.27365 6.17726C1.8242 4.76087 1.99367 3.76416 2.34693 3.07665C2.68842 2.41203 3.24105 1.96094 3.75569 1.69827ZM3.21184 0.296253C3.92032 -0.0365194 4.65292 0.310442 4.99415 0.84813L6.56693 3.32635C6.88489 3.82735 6.90668 4.55975 6.38977 5.06147C6.16824 5.2765 5.86003 5.54078 5.57322 5.78671C5.41579 5.9217 5.2648 6.05116 5.13814 6.16391C6.63274 8.74119 8.63092 9.93358 9.53973 10.3696L10.5514 9.09432C11.029 8.49222 11.8795 8.35149 12.5272 8.74732C13.1263 9.1135 13.9545 9.60634 14.7051 10.0179C15.2057 10.2923 15.5638 10.8645 15.4623 11.5105C15.2801 12.6707 14.8042 13.5158 14.1259 14.086C13.459 14.6467 12.6645 14.8846 11.9367 14.9652C10.5053 15.1237 9.1361 14.6945 8.88609 14.6115C8.82278 14.5905 8.77025 14.5684 8.71378 14.54C8.44537 14.405 6.86355 13.5882 5.16626 12.2462C3.48662 10.9181 1.59239 8.99705 0.840889 6.62877C0.288871 4.88914 0.452168 3.47861 1.00939 2.39414C1.55685 1.32868 2.44342 0.657178 3.21184 0.296253Z" fill="white"/>
<path fill-rule="evenodd" clip-rule="evenodd" d="M10.0329 0.0684098C9.65575 -0.104056 9.20972 0.0608135 9.03666 0.436656C8.8636 0.812498 9.02904 1.25699 9.40618 1.42946C11.151 2.22735 13.148 3.72744 14.0606 5.79747C14.2275 6.17607 14.6708 6.34815 15.0507 6.18182C15.4306 6.01549 15.6033 5.57374 15.4364 5.19514C14.3217 2.6666 11.9655 0.952177 10.0329 0.0684098ZM9.47663 2.72477C9.10548 2.53984 8.65417 2.68975 8.4686 3.05962C8.28303 3.42949 8.43346 3.87924 8.80461 4.06418C9.51064 4.41597 9.99927 4.74748 10.3938 5.14064C10.7883 5.5338 11.121 6.02074 11.474 6.72433C11.6595 7.0942 12.1109 7.24411 12.482 7.05918C12.8532 6.87425 13.0036 6.42449 12.818 6.05463C12.4197 5.26071 12.001 4.62453 11.4563 4.08175C10.9117 3.53896 10.2733 3.12173 9.47663 2.72477Z" fill="white"/>
</svg>
