<svg width="16" height="14" viewBox="0 0 16 14" fill="none" xmlns="http://www.w3.org/2000/svg">
<path fill-rule="evenodd" clip-rule="evenodd" d="M15.1443 0.356117C15.3654 0.48558 15.5 0.714274 15.5 0.960527V10.9079C15.5 11.177 15.3395 11.423 15.0854 11.5434L10.5854 13.675C10.3743 13.775 10.1257 13.775 9.91459 13.675L5.75 11.7023L1.58541 13.675C1.35292 13.7851 1.07681 13.7733 0.855702 13.6439C0.634589 13.5144 0.5 13.2857 0.5 13.0395V2.38158C0.5 2.07575 0.706573 1.80423 1.01283 1.70752L5.51283 0.286463C5.70153 0.226872 5.9075 0.240739 6.08541 0.325013L10.25 2.29771L14.4146 0.325013C14.6471 0.214886 14.9232 0.226655 15.1443 0.356117ZM9.5 3.53123L6.5 2.11018V10.4688L9.5 11.8898V3.53123ZM11 11.8898L14 10.4688V2.11018L11 3.53123V11.8898ZM5 10.4688V1.94633L2 2.8937V11.8898L5 10.4688Z" fill="white"/>
</svg>
